# xmcd
#
# Track frame offsets: 
#        150
#        14027
#        30405
#        45832
#        61682
#        79057
#        96320
#        109112
#        132192
#        148815
#        166107
#        179905
#        196105
#        219310
#        234600
#        249395
#        269687
#        288490
#        303230
#
# Disc length: 4299 seconds
#
# Revision: 2
# Processed by: cddbd v1.5.1PL0 Copyright (c) Steve Scherf et al.
# Submitted via: ExactAudioCopy v0.90b4
#
DISCID=0b10c913
DTITLE=Ian Tyson - All the Good'uns
DYEAR=1996
DGENRE=Folk
TTITLE0=The Wonder Of It All
TTITLE1=Alberta's Child
TTITLE2=Irving Berlin
TTITLE3=M.C Horses
TTITLE4=Springtime In Alberta
TTITLE5=Jaquima To Freno
TTITLE6=Navajo Rug
TTITLE7=Claude Dallas
TTITLE8=Magpie
TTITLE9=The Steeldust Line
TTITLE10=Rockies Turn To Rose
TTITLE11=Alcohol In The Bloodstream
TTITLE12=The Old Double Diamond
TTITLE13=Barrel racing Angel
TTITLE14=Casey Tibbs
TTITLE15=Will James
TTITLE16=Fifty Years Ago
TTITLE17='Till The Circle Is Through
TTITLE18=The Gift
EXTD=
EXTT0=
EXTT1=
EXTT2=
EXTT3=
EXTT4=
EXTT5=
EXTT6=
EXTT7=
EXTT8=
EXTT9=
EXTT10=
EXTT11=
EXTT12=
EXTT13=
EXTT14=
EXTT15=
EXTT16=
EXTT17=
EXTT18=
PLAYORDER=
